<svg xmlns="http://www.w3.org/2000/svg" version="1.1" xmlns:xlink="http://www.w3.org/1999/xlink" xmlns:svgjs="http://svgjs.dev/svgjs" width="1500" height="1500" viewBox="0 0 1500 1500"><rect width="1500" height="1500" fill="#ffffff"></rect><g transform="matrix(0.6666666666666666,0,0,0.6666666666666666,249.18464521298722,326.97311827957)"><svg viewBox="0 0 294 248" data-background-color="#444444" preserveAspectRatio="xMidYMid meet" height="1265" width="1500" xmlns="http://www.w3.org/2000/svg" xmlns:xlink="http://www.w3.org/1999/xlink"><g id="tight-bounds" transform="matrix(1,0,0,1,0.23971430738174604,0.4000000000000057)"><svg viewBox="0 0 293.5205713852365 247.2" height="247.2" width="293.5205713852365"><g><svg viewBox="0 0 397.4975999999999 334.76838184208555" height="247.2" width="293.5205713852365"><g><rect width="397.4975999999999" height="6.100370159498743" x="0" y="188.12712929716048" fill="#000000" opacity="1" stroke-width="0" stroke="transparent" fill-opacity="1" class="rect-yte-0" data-fill-palette-color="primary" rx="1%" id="yte-0" data-palette-color="#ffffff"></rect></g><g transform="matrix(1,0,0,1,0.9887999999999693,210.1970548480172)"><svg viewBox="0 0 395.52 124.57132699406836" height="124.57132699406836" width="395.52"><g id="textblocktransform"><svg viewBox="0 0 395.52 124.57132699406836" height="124.57132699406836" width="395.52" id="textblock"><g><svg viewBox="0 0 395.52 67.64582334230487" height="67.64582334230487" width="395.52"><g transform="matrix(1,0,0,1,0,0)"><svg width="395.52" viewBox="1.5 -32.5 204.33 34.95" height="67.64582334230487" data-palette-color="#ffffff"><path d="M18.25 0L9.75 0 9.75-25.15 1.5-25.15 1.5-31.8 26.5-31.8 26.5-25.15 18.25-25.15 18.25 0ZM40.15 0.3L40.15 0.3Q36.15 0.3 33.07-1.3 30-2.9 28.25-5.95 26.5-9 26.5-13.3L26.5-13.3Q26.5-19.35 29.87-22.63 33.25-25.9 38.95-25.9L38.95-25.9Q42.95-25.9 45.47-24.38 48-22.85 49.2-20.3 50.4-17.75 50.4-14.65L50.4-14.65Q50.4-13.55 50.27-12.38 50.15-11.2 49.9-10.05L49.9-10.05 34.35-10.05Q34.6-7.5 36.47-6.6 38.35-5.7 40.8-5.7L40.8-5.7Q42.85-5.7 44.55-6.18 46.25-6.65 47.3-7.45L47.3-7.45 49.45-2.45Q48.2-1.4 45.72-0.55 43.25 0.3 40.15 0.3ZM34.35-15.1L34.35-15.1 43.4-15.1Q43.4-17.1 42.27-18.48 41.15-19.85 38.9-19.85L38.9-19.85Q36.75-19.85 35.55-18.55 34.35-17.25 34.35-15.1ZM80.3-2.8L74.25 2.45 70.3-1.6 70.3-14.2Q70.3-16.25 69.2-17.35 68.09-18.45 66-18.45L66-18.45Q65.09-18.45 64.3-18.25 63.5-18.05 62.9-17.7L62.9-17.7 62.9 0 54.9 0 54.9-32.5 62.85-32.5 62.85-24.15Q63.75-24.55 65.45-24.8 67.15-25.05 68.55-25.05L68.55-25.05Q72.84-25.05 75.55-22.38 78.25-19.7 78.25-14.95L78.25-14.95 78.25-5.1 80.3-2.8ZM92.29 0L83.79 0 83.79-28.25Q84.99-29.2 86.99-30.05 88.99-30.9 91.52-31.45 94.04-32 96.74-32L96.74-32Q102.94-32 106.54-28.93 110.14-25.85 110.14-20.1L110.14-20.1Q110.14-16.1 108.47-13.43 106.79-10.75 103.97-9.45 101.14-8.15 97.74-8.15L97.74-8.15Q95.94-8.15 94.62-8.5 93.29-8.85 92.29-9.4L92.29-9.4 92.29 0ZM97.04-15L97.04-15Q99.09-15 100.37-16.3 101.64-17.6 101.64-20.2L101.64-20.2Q101.64-22.65 100.34-24.03 99.04-25.4 96.24-25.4L96.24-25.4Q93.94-25.4 92.29-24.5L92.29-24.5 92.29-19.5Q92.29-17.15 93.74-16.07 95.19-15 97.04-15ZM140.64-3.05L133.89 2.3 130.79-1.6Q129.64-0.85 128.09-0.43 126.54 0 124.34 0L124.34 0Q118.74 0 115.94-2.78 113.14-5.55 113.14-10.8L113.14-10.8 113.14-25.6 121.14-25.6 121.14-11.25Q121.14-9 122.34-7.83 123.54-6.65 125.54-6.65L125.54-6.65Q127.59-6.65 128.74-7.83 129.89-9 129.89-11.25L129.89-11.25 129.89-25.6 137.89-25.6 137.89-6.25 140.64-3.05ZM152.14 0L144.14 0 144.14-32.5 152.14-32.5 152.14 0ZM167.94 1L167.94 1Q164.14 1 160.96-0.2 157.79-1.4 156.14-2.8L156.14-2.8 158.69-8.15Q159.94-7.2 162.24-6.35 164.54-5.5 166.94-5.5L166.94-5.5Q168.74-5.5 169.59-6.05 170.44-6.6 170.44-7.55L170.44-7.55Q170.44-8.4 169.79-8.8 169.14-9.2 167.84-9.4L167.84-9.4 165.44-9.8Q161.19-10.5 158.89-12.48 156.59-14.45 156.59-17.8L156.59-17.8Q156.59-19.95 157.66-21.75 158.74-23.55 161.01-24.65 163.29-25.75 166.94-25.75L166.94-25.75Q170.54-25.75 173.36-24.83 176.19-23.9 177.59-22.9L177.59-22.9 175.54-17.55Q174.74-18.1 173.41-18.53 172.09-18.95 170.59-19.2 169.09-19.45 167.74-19.45L167.74-19.45Q164.59-19.45 164.59-17.9L164.59-17.9Q164.59-17.15 165.19-16.68 165.79-16.2 166.54-16.1L166.54-16.1 169.59-15.6Q174.64-14.8 176.54-12.85 178.44-10.9 178.44-7.9L178.44-7.9Q178.44-5.55 177.39-3.53 176.34-1.5 174.04-0.25 171.74 1 167.94 1ZM195.58 0.3L195.58 0.3Q191.58 0.3 188.51-1.3 185.43-2.9 183.68-5.95 181.93-9 181.93-13.3L181.93-13.3Q181.93-19.35 185.31-22.63 188.68-25.9 194.38-25.9L194.38-25.9Q198.38-25.9 200.91-24.38 203.43-22.85 204.63-20.3 205.83-17.75 205.83-14.65L205.83-14.65Q205.83-13.55 205.71-12.38 205.58-11.2 205.33-10.05L205.33-10.05 189.78-10.05Q190.03-7.5 191.91-6.6 193.78-5.7 196.23-5.7L196.23-5.7Q198.28-5.7 199.98-6.18 201.68-6.65 202.73-7.45L202.73-7.45 204.88-2.45Q203.63-1.4 201.16-0.55 198.68 0.3 195.58 0.3ZM189.78-15.1L189.78-15.1 198.83-15.1Q198.83-17.1 197.71-18.48 196.58-19.85 194.33-19.85L194.33-19.85Q192.18-19.85 190.98-18.55 189.78-17.25 189.78-15.1Z" opacity="1" transform="matrix(1,0,0,1,0,0)" fill="#000000" class="wordmark-text-0" data-fill-palette-color="primary" id="text-0"></path></svg></g></svg></g><g transform="matrix(1,0,0,1,75.54432000000001,83.61537873366282)"><svg viewBox="0 0 244.43135999999996 40.955948260405535" height="40.955948260405535" width="244.43135999999996"><g transform="matrix(1,0,0,1,0,0)"><svg width="244.43135999999996" viewBox="1.4 -30.25 187.37 31.4" height="40.955948260405535" data-palette-color="#00d1cd"><path d="M3.85 0L3.85 0Q1.4 0 1.4-2.5L1.4-2.5Q1.4-4 2.13-5.88 2.85-7.75 3.83-9.6 4.8-11.45 5.45-12.75L5.45-12.75Q4.75-12.7 3.83-12.53 2.9-12.35 2.25-12.35L2.25-12.35Q2.05-12.35 1.88-12.43 1.7-12.5 1.7-12.7L1.7-12.7Q1.7-13 2-13.1L2-13.1Q2.35-13.35 2.73-13.55 3.1-13.75 3.45-13.95L3.45-13.95Q4.45-14.6 5.38-15.38 6.3-16.15 7.15-17L7.15-17Q7.35-17.4 7.53-17.73 7.7-18.05 8.2-18.2L8.2-18.2Q8.6-18.3 9.35-18.65 10.1-19 10.45-19L10.45-19Q10.7-19 10.7-18.8L10.7-18.8Q10.7-18.65 10.38-18 10.05-17.35 9.6-16.53 9.15-15.7 8.78-15.03 8.4-14.35 8.3-14.2L8.3-14.2Q8.6-14.2 9.38-14.2 10.15-14.2 11.05-14.15 11.95-14.1 12.6-13.95 13.25-13.8 13.25-13.55L13.25-13.55Q13.25-13.35 12.98-13.28 12.7-13.2 12.4-13.2L12.4-13.2Q11.2-13.2 10.03-13.18 8.85-13.15 7.7-13L7.7-13Q7.2-12.1 6.53-10.78 5.85-9.45 5.18-7.98 4.5-6.5 4.05-5.13 3.6-3.75 3.6-2.75L3.6-2.75Q3.6-2.1 3.88-1.7 4.15-1.3 4.85-1.3L4.85-1.3Q5.55-1.3 6.4-1.75 7.25-2.2 8.03-2.83 8.8-3.45 9.38-3.9 9.95-4.35 10.1-4.35L10.1-4.35Q10.15-4.35 10.15-4.33 10.15-4.3 10.15-4.3L10.15-4.3Q10.15-4.1 10.03-3.88 9.9-3.65 9.8-3.55L9.8-3.55Q9.15-2.75 8.15-1.93 7.15-1.1 6.03-0.55 4.9 0 3.85 0ZM4.35-13.9L4.35-13.9Q4.8-14 5.23-14.03 5.65-14.05 6.05-14.1L6.05-14.1Q6.2-14.45 6.3-14.8 6.4-15.15 6.5-15.5L6.5-15.5Q5.95-15.15 5.43-14.73 4.9-14.3 4.35-13.9ZM11.15 0.35L11.15 0.35Q10.05 0.35 9.7 0 9.35-0.35 9.35-1.45L9.35-1.45Q9.35-2.65 9.92-4.2 10.5-5.75 11-6.8L11-6.8Q11-6.85 10.97-6.88 10.95-6.9 10.95-6.95L10.95-6.95Q10.95-7.2 11.12-7.35 11.3-7.5 11.4-7.65L11.4-7.65Q11.65-8.05 11.85-8.45 12.05-8.85 12.25-9.2L12.25-9.2Q13.1-10.55 14.32-11.8 15.55-13.05 17.1-13.5L17.1-13.5Q17.65-13.65 18.15-13.65L18.15-13.65Q18.25-13.65 18.37-13.63 18.5-13.6 18.5-13.5L18.5-13.5Q18.5-13.35 18.22-13.15 17.95-12.95 17.85-12.85L17.85-12.85Q17.05-12.2 16.12-10.85 15.2-9.5 14.65-8.65L14.65-8.65Q15.8-8.85 16.92-8.95 18.05-9.05 19.15-8.95L19.15-8.95Q19.7-9.75 20.17-10.93 20.65-12.1 20.65-13.1L20.65-13.1Q20.65-13.65 20.52-13.75 20.4-13.85 19.95-13.85L19.95-13.85Q19.85-13.85 19.65-13.9 19.45-13.95 19.45-14.1L19.45-14.1Q19.45-14.3 19.9-14.45 20.35-14.6 20.85-14.68 21.35-14.75 21.5-14.75L21.5-14.75Q22.85-14.75 22.85-13.5L22.85-13.5Q22.85-12.8 22.42-11.83 22-10.85 21.37-10.03 20.75-9.2 20.15-8.85L20.15-8.85Q20.3-8.85 20.77-8.72 21.25-8.6 21.67-8.45 22.1-8.3 22.1-8.1L22.1-8.1Q22.1-7.95 21.8-7.93 21.5-7.9 21.4-7.9L21.4-7.9Q20.95-7.9 20.5-7.98 20.05-8.05 19.6-8.05L19.6-8.05Q18.2-8.05 16.77-7.85 15.35-7.65 13.95-7.35L13.95-7.35Q13.45-6.45 12.82-5.05 12.2-3.65 12.2-2.55L12.2-2.55Q12.2-0.8 14-0.8L14-0.8Q15.3-0.8 16.52-1.5 17.75-2.2 18.8-3.15 19.85-4.1 20.5-4.8 21.15-5.5 21.25-5.5L21.25-5.5Q21.4-5.5 21.4-5.3L21.4-5.3Q21.4-4.7 20.7-3.88 20-3.05 19.55-2.7L19.55-2.7Q17.8-1.35 15.62-0.5 13.45 0.35 11.15 0.35ZM23.29 0.35L23.29 0.35Q22.19 0.35 21.84 0 21.49-0.35 21.49-1.45L21.49-1.45Q21.49-2.4 21.69-3.05L21.69-3.05Q22.09-4.4 22.77-6.03 23.45-7.65 24.39-9.2 25.34-10.75 26.57-11.9 27.79-13.05 29.24-13.5L29.24-13.5Q30.24-13.8 31.2-14.23 32.14-14.65 33.2-14.65L33.2-14.65Q33.95-14.65 34.47-14.2 34.99-13.75 34.99-12.95L34.99-12.95Q34.99-12.35 34.64-11.6 34.3-10.85 33.72-10.33 33.14-9.8 32.45-9.8L32.45-9.8Q32.24-9.8 32.24-9.95L32.24-9.95Q32.24-10.1 32.34-10.2L32.34-10.2Q32.59-10.65 32.67-11.18 32.74-11.7 32.74-12.2L32.74-12.2Q32.74-12.7 32.62-13.18 32.49-13.65 31.89-13.65L31.89-13.65Q31.39-13.65 30.89-13.38 30.39-13.1 29.99-12.85L29.99-12.85Q29.29-12.35 28.32-11.03 27.34-9.7 26.45-8.08 25.54-6.45 24.95-4.95 24.34-3.45 24.34-2.55L24.34-2.55Q24.34-0.8 26.14-0.8L26.14-0.8Q27.45-0.8 28.67-1.5 29.89-2.2 30.92-3.15 31.95-4.1 32.59-4.8 33.24-5.5 33.34-5.5L33.34-5.5Q33.55-5.5 33.55-5.3L33.55-5.3Q33.55-4.7 32.82-3.9 32.09-3.1 31.7-2.7L31.7-2.7Q29.89-1.35 27.72-0.5 25.54 0.35 23.29 0.35ZM32.39 1.1L32.39 1.1Q32.34 1.1 32.34 1.07 32.34 1.05 32.34 1.05L32.34 1.05Q32.34 0.8 32.72-0.05 33.09-0.9 33.19-1.1L33.19-1.1Q35.04-5.25 36.74-9.47 38.44-13.7 40.42-17.82 42.39-21.95 44.94-25.7L44.94-25.7Q44.84-26.1 44.84-26.4L44.84-26.4Q44.84-26.65 44.89-26.8L44.89-26.8 46.74-29.65Q47.04-29.95 47.77-30.1 48.49-30.25 48.89-30.25L48.89-30.25Q49.09-30.25 49.64-30.18 50.19-30.1 50.19-29.75L50.19-29.75Q50.19-29.6 50.14-29.6L50.14-29.6Q49.34-28.5 48.54-27.35 47.74-26.2 46.94-25.05L46.94-25.05Q40.19-14.95 36.14-3.65L36.14-3.65Q38.39-5.8 40.39-8.2 42.39-10.6 44.59-12.75L44.59-12.75Q44.69-12.85 44.82-12.88 44.94-12.9 45.04-12.95L45.04-12.95Q45.29-13.1 45.67-13.35 46.04-13.6 46.29-13.6L46.29-13.6Q46.29-13.6 46.29-13.55L46.29-13.55 46.34-13.55Q46.39-13.6 46.59-13.6L46.59-13.6Q46.84-13.6 46.89-13.3 46.94-13 46.94-12.8L46.94-12.8Q46.94-12.3 46.62-11.25 46.29-10.2 45.84-9.95L45.84-9.95Q45.34-8.2 44.92-6.78 44.49-5.35 44.49-3.4L44.49-3.4Q44.49-2.9 44.64-2.1 44.79-1.3 45.54-1.3L45.54-1.3Q46.24-1.3 46.99-1.75 47.74-2.2 48.44-2.83 49.14-3.45 49.64-3.9 50.14-4.35 50.29-4.35L50.29-4.35Q50.39-4.35 50.39-4.2L50.39-4.2Q50.39-4.05 50.29-3.85 50.19-3.65 50.09-3.55L50.09-3.55Q49.29-2.3 47.79-1.15 46.29 0 44.74 0L44.74 0Q43.24 0 42.74-1.03 42.24-2.05 42.24-3.3L42.24-3.3Q42.24-5.15 42.82-7.2 43.39-9.25 44.04-10.95L44.04-10.95Q43.74-10.65 42.84-9.65 41.94-8.65 40.74-7.35 39.54-6.05 38.39-4.78 37.24-3.5 36.47-2.6 35.69-1.7 35.64-1.5L35.64-1.5Q35.59-1.2 35.59-0.88 35.59-0.55 35.39-0.25L35.39-0.25Q35.29-0.1 34.64 0.23 33.99 0.55 33.32 0.83 32.64 1.1 32.39 1.1ZM48.89 0.75L48.89 0.75Q48.54 0.75 48.59 0.5L48.59 0.5Q49.99-1.9 51.17-4.4 52.34-6.9 53.39-9.45L53.39-9.45Q53.39-9.55 53.59-10.03 53.79-10.5 53.79-10.55L53.79-10.55Q53.79-10.7 53.54-10.65 53.29-10.6 53.29-10.8L53.29-10.8Q53.29-10.9 53.69-11.58 54.09-12.25 54.54-12.98 54.99-13.7 55.09-13.85L55.09-13.85Q55.34-14.15 56.04-14.45 56.74-14.75 57.09-14.75L57.09-14.75Q57.59-14.75 57.59-14.3L57.59-14.3Q57.59-14.15 57.24-13.3 56.89-12.45 56.34-11.3 55.79-10.15 55.24-8.95 54.69-7.75 54.24-6.85 53.79-5.95 53.64-5.65L53.64-5.65Q54.04-6.15 54.97-7.13 55.89-8.1 57.07-9.25 58.24-10.4 59.44-11.48 60.64-12.55 61.62-13.23 62.59-13.9 63.14-13.9L63.14-13.9Q63.54-13.9 63.62-13.6 63.69-13.3 63.69-13.05L63.69-13.05Q63.69-12.4 63.54-11.7 63.39-11 63.19-10.35L63.19-10.35Q62.79-8.85 62.22-6.83 61.64-4.8 61.64-3.3L61.64-3.3Q61.64-2.55 61.92-1.93 62.19-1.3 63.09-1.3L63.09-1.3Q63.79-1.3 64.57-1.75 65.34-2.2 66.02-2.83 66.69-3.45 67.22-3.9 67.74-4.35 67.89-4.35L67.89-4.35Q67.94-4.35 67.94-4.25L67.94-4.25Q67.94-4.1 67.87-3.88 67.79-3.65 67.69-3.55L67.69-3.55Q66.89-2.3 65.37-1.15 63.84 0 62.34 0L62.34 0Q60.79 0 60.02-0.93 59.24-1.85 59.24-3.35L59.24-3.35Q59.24-4.65 59.72-6.25 60.19-7.85 60.54-9.15L60.54-9.15Q60.64-9.55 60.82-10.1 60.99-10.65 60.99-11.05L60.99-11.05Q60.99-11.15 60.94-11.3 60.89-11.45 60.74-11.45L60.74-11.45Q60.49-11.45 60.12-11.18 59.74-10.9 59.54-10.75L59.54-10.75Q58.59-9.95 57.42-8.7 56.24-7.45 55.09-5.98 53.94-4.5 52.99-3.1 52.04-1.7 51.49-0.6L51.49-0.6Q51.39-0.35 50.87-0.03 50.34 0.3 49.77 0.53 49.19 0.75 48.89 0.75ZM72.69-16.2L72.69-16.2Q72.54-16.2 72.51-16.57 72.49-16.95 72.49-17.05L72.49-17.05Q72.49-17.2 72.54-17.7 72.59-18.2 72.84-18.25L72.84-18.25Q73.54-18.35 74.24-18.5 74.94-18.65 75.64-18.85L75.64-18.85Q75.74-18.9 75.94-18.9L75.94-18.9Q76.19-18.9 76.19-18.65L76.19-18.65Q76.19-18.1 75.51-17.53 74.84-16.95 74.01-16.57 73.19-16.2 72.69-16.2ZM68.64 0L68.64 0Q66.19 0 66.19-2.5L66.19-2.5Q66.19-3.55 66.51-4.65 66.84-5.75 67.24-6.7L67.24-6.7Q67.69-7.8 68.24-8.85 68.79-9.9 69.34-10.95L69.34-10.95Q69.59-11.4 69.81-11.88 70.04-12.35 70.29-12.8L70.29-12.8Q70.54-13.15 71.24-13.4 71.94-13.65 72.34-13.65L72.34-13.65Q72.39-13.65 72.34-13.63 72.29-13.6 72.29-13.6L72.29-13.6Q72.29-13.6 72.31-13.6 72.34-13.6 72.34-13.55L72.34-13.55Q72.44-13.65 72.59-13.65L72.59-13.65Q72.79-13.65 72.84-13.48 72.89-13.3 72.89-13.15L72.89-13.15Q72.89-12.8 72.61-12.1 72.34-11.4 71.96-10.78 71.59-10.15 71.24-10L71.24-10Q70.79-8.95 70.06-7.7 69.34-6.45 68.74-5.18 68.14-3.9 68.14-2.7L68.14-2.7Q68.14-1.3 69.64-1.3L69.64-1.3Q70.34-1.3 71.16-1.75 71.99-2.2 72.79-2.83 73.59-3.45 74.16-3.9 74.74-4.35 74.89-4.35L74.89-4.35Q74.94-4.35 74.94-4.33 74.94-4.3 74.94-4.3L74.94-4.3Q74.94-4.1 74.79-3.88 74.64-3.65 74.54-3.55L74.54-3.55Q73.94-2.75 72.94-1.93 71.94-1.1 70.81-0.55 69.69 0 68.64 0ZM75.19 0.35L75.19 0.35Q74.09 0.35 73.73 0 73.39-0.35 73.39-1.45L73.39-1.45Q73.39-2.4 73.59-3.05L73.59-3.05Q73.98-4.4 74.66-6.03 75.34-7.65 76.28-9.2 77.23-10.75 78.46-11.9 79.69-13.05 81.14-13.5L81.14-13.5Q82.14-13.8 83.09-14.23 84.03-14.65 85.09-14.65L85.09-14.65Q85.84-14.65 86.36-14.2 86.89-13.75 86.89-12.95L86.89-12.95Q86.89-12.35 86.53-11.6 86.19-10.85 85.61-10.33 85.03-9.8 84.34-9.8L84.34-9.8Q84.14-9.8 84.14-9.95L84.14-9.95Q84.14-10.1 84.23-10.2L84.23-10.2Q84.48-10.65 84.56-11.18 84.64-11.7 84.64-12.2L84.64-12.2Q84.64-12.7 84.51-13.18 84.39-13.65 83.78-13.65L83.78-13.65Q83.28-13.65 82.78-13.38 82.28-13.1 81.89-12.85L81.89-12.85Q81.19-12.35 80.21-11.03 79.23-9.7 78.34-8.08 77.44-6.45 76.84-4.95 76.23-3.45 76.23-2.55L76.23-2.55Q76.23-0.8 78.03-0.8L78.03-0.8Q79.34-0.8 80.56-1.5 81.78-2.2 82.81-3.15 83.84-4.1 84.48-4.8 85.14-5.5 85.23-5.5L85.23-5.5Q85.44-5.5 85.44-5.3L85.44-5.3Q85.44-4.7 84.71-3.9 83.98-3.1 83.59-2.7L83.59-2.7Q81.78-1.35 79.61-0.5 77.44 0.35 75.19 0.35ZM96.48 0.4L96.48 0.4Q95.13 0.4 94.68-0.68 94.23-1.75 94.23-2.85L94.23-2.85Q94.23-4.1 94.43-5.35 94.63-6.6 94.88-7.8L94.88-7.8Q94.38-6.95 93.28-5.6 92.18-4.25 90.83-2.88 89.48-1.5 88.11-0.58 86.73 0.35 85.68 0.35L85.68 0.35Q85.08 0.35 84.91-0.05 84.73-0.45 84.73-0.95L84.73-0.95Q84.73-2 85.23-3.6 85.73-5.2 86.63-6.98 87.53-8.75 88.66-10.25 89.78-11.75 91.01-12.68 92.23-13.6 93.48-13.5L93.48-13.5Q94.03-13.8 94.68-14.05 95.33-14.3 95.98-14.3L95.98-14.3Q96.48-14.3 97.01-14.23 97.53-14.15 98.03-14.05L98.03-14.05Q98.28-14.15 98.58-14.25 98.88-14.35 99.18-14.35L99.18-14.35Q99.73-14.35 99.73-13.85L99.73-13.85Q99.73-13.6 99.46-12.88 99.18-12.15 98.86-11.53 98.53-10.9 98.33-10.8L98.33-10.8Q97.88-9.9 97.48-8.47 97.08-7.05 96.83-5.55 96.58-4.05 96.58-3L96.58-3Q96.58-2.45 96.76-1.78 96.93-1.1 97.68-1.1L97.68-1.1Q98.53-1.1 99.41-1.78 100.28-2.45 100.93-3.13 101.58-3.8 101.68-3.8L101.68-3.8Q101.78-3.8 101.78-3.7L101.78-3.7Q101.78-3.25 101.28-2.65 100.78-2.05 100.18-1.53 99.58-1 99.28-0.75L99.28-0.75Q98.68-0.3 97.96 0.05 97.23 0.4 96.48 0.4ZM87.43-1.35L87.43-1.35Q87.68-1.35 88.03-1.58 88.38-1.8 88.58-1.95L88.58-1.95Q91.58-4.1 93.28-6.9 94.98-9.7 96.58-12.9L96.58-12.9Q96.38-13 96.13-13.05 95.88-13.1 95.63-13.1L95.63-13.1Q94.68-13.1 93.76-12.6 92.83-12.1 92.23-11.4L92.23-11.4Q91.28-10.4 90.31-8.78 89.33-7.15 88.53-5.43 87.73-3.7 87.33-2.35L87.33-2.35Q87.28-2.2 87.23-2.05 87.18-1.9 87.18-1.7L87.18-1.7Q87.18-1.35 87.43-1.35ZM102.78 0.1L102.78 0.1Q101.38 0.1 101.38-1.35L101.38-1.35Q101.38-2 101.61-2.75 101.83-3.5 102.03-4.1L102.03-4.1Q103.38-7.6 105.33-11.43 107.28-15.25 109.48-18.93 111.68-22.6 113.78-25.7L113.78-25.7Q113.68-26.1 113.68-26.4L113.68-26.4Q113.68-26.65 113.73-26.8L113.73-26.8Q113.88-27 114.28-27.65 114.68-28.3 115.11-28.93 115.53-29.55 115.63-29.65L115.63-29.65Q115.88-29.95 116.61-30.1 117.33-30.25 117.73-30.25L117.73-30.25Q117.98-30.25 118.51-30.18 119.03-30.1 119.03-29.75L119.03-29.75Q119.03-29.6 118.98-29.6L118.98-29.6Q118.18-28.45 117.36-27.28 116.53-26.1 115.73-24.95L115.73-24.95Q112.83-20.6 110.31-16.07 107.78-11.55 105.48-6.9L105.48-6.9Q105.03-6.05 104.51-4.75 103.98-3.45 103.98-2.5L103.98-2.5Q103.98-1.55 104.73-1.55L104.73-1.55Q105.38-1.55 106.18-2 106.98-2.45 107.71-3.03 108.43-3.6 108.96-4.05 109.48-4.5 109.63-4.5L109.63-4.5Q109.73-4.5 109.73-4.3L109.73-4.3Q109.73-4.1 109.56-3.78 109.38-3.45 109.23-3.25L109.23-3.25Q108.33-2.2 106.68-1.25 105.03-0.3 103.73 0L103.73 0Q103.53 0.05 103.28 0.08 103.03 0.1 102.78 0.1ZM124.23 0.75L124.23 0.75Q123.88 0.75 123.93 0.5L123.93 0.5Q125.33-1.9 126.5-4.4 127.68-6.9 128.73-9.45L128.73-9.45Q128.73-9.55 128.93-10.03 129.13-10.5 129.13-10.55L129.13-10.55Q129.13-10.7 128.88-10.65 128.63-10.6 128.63-10.8L128.63-10.8Q128.63-10.9 129.03-11.58 129.43-12.25 129.88-12.98 130.33-13.7 130.43-13.85L130.43-13.85Q130.68-14.15 131.38-14.45 132.08-14.75 132.43-14.75L132.43-14.75Q132.93-14.75 132.93-14.3L132.93-14.3Q132.93-14.15 132.58-13.3 132.23-12.45 131.68-11.3 131.13-10.15 130.58-8.95 130.03-7.75 129.58-6.85 129.13-5.95 128.98-5.65L128.98-5.65Q129.38-6.15 130.3-7.13 131.23-8.1 132.4-9.25 133.58-10.4 134.78-11.48 135.98-12.55 136.95-13.23 137.93-13.9 138.48-13.9L138.48-13.9Q138.88-13.9 138.95-13.6 139.03-13.3 139.03-13.05L139.03-13.05Q139.03-12.4 138.88-11.7 138.73-11 138.53-10.35L138.53-10.35Q138.13-8.85 137.55-6.83 136.98-4.8 136.98-3.3L136.98-3.3Q136.98-2.55 137.25-1.93 137.53-1.3 138.43-1.3L138.43-1.3Q139.13-1.3 139.9-1.75 140.68-2.2 141.35-2.83 142.03-3.45 142.55-3.9 143.08-4.35 143.23-4.35L143.23-4.35Q143.28-4.35 143.28-4.25L143.28-4.25Q143.28-4.1 143.2-3.88 143.13-3.65 143.03-3.55L143.03-3.55Q142.23-2.3 140.7-1.15 139.18 0 137.68 0L137.68 0Q136.13 0 135.35-0.93 134.58-1.85 134.58-3.35L134.58-3.35Q134.58-4.65 135.05-6.25 135.53-7.85 135.88-9.15L135.88-9.15Q135.98-9.55 136.15-10.1 136.33-10.65 136.33-11.05L136.33-11.05Q136.33-11.15 136.28-11.3 136.23-11.45 136.08-11.45L136.08-11.45Q135.83-11.45 135.45-11.18 135.08-10.9 134.88-10.75L134.88-10.75Q133.93-9.95 132.75-8.7 131.58-7.45 130.43-5.98 129.28-4.5 128.33-3.1 127.38-1.7 126.83-0.6L126.83-0.6Q126.73-0.35 126.2-0.03 125.68 0.3 125.1 0.53 124.53 0.75 124.23 0.75ZM143.47 0.35L143.47 0.35Q142.37 0.35 142.02 0 141.67-0.35 141.67-1.45L141.67-1.45Q141.67-2.65 142.25-4.2 142.82-5.75 143.32-6.8L143.32-6.8Q143.32-6.85 143.3-6.88 143.27-6.9 143.27-6.95L143.27-6.95Q143.27-7.2 143.45-7.35 143.62-7.5 143.72-7.65L143.72-7.65Q143.97-8.05 144.17-8.45 144.37-8.85 144.57-9.2L144.57-9.2Q145.42-10.55 146.65-11.8 147.87-13.05 149.42-13.5L149.42-13.5Q149.97-13.65 150.47-13.65L150.47-13.65Q150.57-13.65 150.7-13.63 150.82-13.6 150.82-13.5L150.82-13.5Q150.82-13.35 150.55-13.15 150.27-12.95 150.17-12.85L150.17-12.85Q149.37-12.2 148.45-10.85 147.52-9.5 146.97-8.65L146.97-8.65Q148.12-8.85 149.25-8.95 150.37-9.05 151.47-8.95L151.47-8.95Q152.02-9.75 152.5-10.93 152.97-12.1 152.97-13.1L152.97-13.1Q152.97-13.65 152.85-13.75 152.72-13.85 152.27-13.85L152.27-13.85Q152.17-13.85 151.97-13.9 151.77-13.95 151.77-14.1L151.77-14.1Q151.77-14.3 152.22-14.45 152.67-14.6 153.17-14.68 153.67-14.75 153.82-14.75L153.82-14.75Q155.17-14.75 155.17-13.5L155.17-13.5Q155.17-12.8 154.75-11.83 154.32-10.85 153.7-10.03 153.07-9.2 152.47-8.85L152.47-8.85Q152.62-8.85 153.1-8.72 153.57-8.6 154-8.45 154.42-8.3 154.42-8.1L154.42-8.1Q154.42-7.95 154.12-7.93 153.82-7.9 153.72-7.9L153.72-7.9Q153.27-7.9 152.82-7.98 152.37-8.05 151.92-8.05L151.92-8.05Q150.52-8.05 149.1-7.85 147.67-7.65 146.27-7.35L146.27-7.35Q145.77-6.45 145.15-5.05 144.52-3.65 144.52-2.55L144.52-2.55Q144.52-0.8 146.32-0.8L146.32-0.8Q147.62-0.8 148.85-1.5 150.07-2.2 151.12-3.15 152.17-4.1 152.82-4.8 153.47-5.5 153.57-5.5L153.57-5.5Q153.72-5.5 153.72-5.3L153.72-5.3Q153.72-4.7 153.02-3.88 152.32-3.05 151.87-2.7L151.87-2.7Q150.12-1.35 147.95-0.5 145.77 0.35 143.47 0.35ZM155.17 0.1L155.17 0.1Q154.32 0.1 153.97-0.35 153.62-0.8 153.62-1.6L153.62-1.6Q153.62-3.75 154.75-5.95 155.87-8.15 156.87-9.95L156.87-9.95 156.72-9.95Q156.42-9.95 156.42-10.2L156.42-10.2Q156.42-10.35 156.52-10.45L156.52-10.45Q157.17-11.65 157.62-12.53 158.07-13.4 158.82-13.85 159.57-14.3 161.12-14.3L161.12-14.3Q161.42-14.3 161.42-14L161.42-14Q161.42-13.65 160.87-12.68 160.32-11.7 159.67-10.75 159.02-9.8 158.77-9.4L158.77-9.4Q158.37-8.75 157.72-7.43 157.07-6.1 156.59-4.78 156.12-3.45 156.12-2.7L156.12-2.7Q156.12-2.45 156.22-2.23 156.32-2 156.62-2L156.62-2Q157.07-2 157.72-2.48 158.37-2.95 158.72-3.2L158.72-3.2Q160.67-4.85 162.4-7 164.12-9.15 165.42-11.3L165.42-11.3Q165.47-11.4 165.5-11.6 165.52-11.8 165.57-11.85L165.57-11.85Q165.72-12.4 166-12.98 166.27-13.55 166.82-13.9L166.82-13.9Q167.17-14.15 167.87-14.3 168.57-14.45 169.02-14.45L169.02-14.45Q169.22-14.45 169.5-14.38 169.77-14.3 169.77-14.05L169.77-14.05Q169.77-13.8 169.34-13.25 168.92-12.7 168.47-12.18 168.02-11.65 167.82-11.3L167.82-11.3Q167.42-10.55 167.07-9.13 166.72-7.7 166.55-6.25 166.37-4.8 166.37-3.9L166.37-3.9Q166.37-3.45 166.44-2.85 166.52-2.25 166.77-1.78 167.02-1.3 167.62-1.3L167.62-1.3Q168.62-1.3 169.67-2.23 170.72-3.15 171.69-4.5 172.67-5.85 173.42-7.18 174.17-8.5 174.47-9.25L174.47-9.25Q174.87-10.25 175.12-11.3 175.37-12.35 175.37-13.45L175.37-13.45Q175.37-14.95 174.67-16.2L174.67-16.2Q174.62-16.3 174.57-16.43 174.52-16.55 174.52-16.65L174.52-16.65Q174.52-17 174.97-17L174.97-17Q175.82-17 176.27-16.45 176.72-15.9 176.92-15.13 177.12-14.35 177.12-13.7L177.12-13.7Q177.12-12.8 176.92-11.88 176.72-10.95 176.37-10.1L176.37-10.1Q175.87-8.9 174.82-7.2 173.77-5.5 172.37-3.85 170.97-2.2 169.44-1.1 167.92 0 166.47 0L166.47 0Q165.07 0 164.57-0.98 164.07-1.95 164.07-3.2L164.07-3.2Q164.07-4.55 164.32-5.9 164.57-7.25 164.67-8.65L164.67-8.65Q164.07-7.85 162.9-6.4 161.72-4.95 160.3-3.45 158.87-1.95 157.52-0.93 156.17 0.1 155.17 0.1ZM176.97 1.15L176.97 1.15Q176.77 1.15 176.07 1.07 175.37 1 175.37 0.6L175.37 0.6Q175.37 0.35 175.74 0.08 176.12-0.2 176.32-0.35L176.32-0.35Q177.72-1.15 179.82-1.53 181.92-1.9 183.47-2.05L183.47-2.05Q183.57-2.25 183.57-2.45L183.57-2.45Q183.57-3.25 182.82-3.9 182.07-4.55 181.09-5.2 180.12-5.85 179.37-6.68 178.62-7.5 178.62-8.6L178.62-8.6Q178.62-8.9 178.72-9.18 178.82-9.45 178.92-9.7L178.92-9.7Q180.07-11.85 182.04-12.95 184.02-14.05 186.32-14.55L186.32-14.55Q186.52-14.65 186.72-14.65 186.92-14.65 187.12-14.65L187.12-14.65Q187.82-14.65 188.29-14.28 188.77-13.9 188.77-13.15L188.77-13.15Q188.77-12.2 188.07-11.33 187.37-10.45 186.47-10.2L186.47-10.2 186.32-10.2Q186.27-10.2 186.27-10.3L186.27-10.3Q186.27-10.7 186.44-11.1 186.62-11.5 186.62-11.9L186.62-11.9Q186.62-12.6 186.09-12.88 185.57-13.15 184.92-13.15L184.92-13.15Q183.52-13.15 182.24-12.28 180.97-11.4 180.97-9.9L180.97-9.9Q180.97-8.7 181.64-7.95 182.32-7.2 183.17-6.65 184.02-6.1 184.69-5.48 185.37-4.85 185.37-3.85L185.37-3.85Q185.37-3.35 185.14-2.9 184.92-2.45 184.67-2.05L184.67-2.05Q185.12-2.1 185.54-2.13 185.97-2.15 186.42-2.15L186.42-2.15Q186.72-2.15 186.72-2L186.72-2Q186.72-1.8 186.52-1.7 186.32-1.6 186.17-1.55L186.17-1.55Q185.67-1.5 185.17-1.4 184.67-1.3 184.12-1.2L184.12-1.2Q182.72 0.1 180.79 0.63 178.87 1.15 176.97 1.15Z" opacity="1" transform="matrix(1,0,0,1,0,0)" fill="#000000" class="slogan-text-1" data-fill-palette-color="secondary" id="text-1"></path></svg></g></svg></g></svg></g></svg></g><g transform="matrix(1,0,0,1,105.06191577249565,0)"><svg viewBox="0 0 187.37376845500862 172.1575739058025" height="172.1575739058025" width="187.37376845500862"><g><svg xmlns="http://www.w3.org/2000/svg" xmlns:xlink="http://www.w3.org/1999/xlink" version="1.1" x="0" y="0" viewBox="7.523 10.972 84.9550010418171 78.05600000000001" enable-background="new 0 0 100 100" xml:space="preserve" height="172.1575739058025" width="187.37376845500862" class="icon-icon-0" data-fill-palette-color="accent" id="icon-0"><path d="M10.972 50.27C10.983 51.046 11.004 51.811 11.058 52.566H11.015C10.66 53.051 10.099 53.331 9.452 53.331 8.396 53.331 7.523 52.47 7.523 51.402S8.396 49.472 9.452 49.472C10.088 49.472 10.627 49.795 10.972 50.27" fill="#000000" data-fill-palette-color="accent"></path><path d="M92.478 51.401A1.927 1.927 0 0 1 90.548 53.33 1.9 1.9 0 0 1 88.975 52.521H88.943C88.997 51.756 89.029 50.98 89.029 50.204A1.92 1.92 0 0 1 90.549 49.471 1.93 1.93 0 0 1 92.478 51.401" fill="#000000" data-fill-palette-color="accent"></path><path d="M47.068 52.521H88.943C87.648 72.904 70.705 89.028 50 89.028 29.305 89.028 12.373 72.924 11.058 52.565L12.201 52.554H13.99C14.411 52.554 14.799 52.317 14.971 51.929L15.209 51.444 17.267 47.068 19.035 51.444 20.544 55.183C20.716 55.625 21.169 55.895 21.643 55.852 22.128 55.798 22.516 55.442 22.602 54.979L23.249 51.444 26.471 34.069 27.527 51.444 28.939 74.843C28.982 75.361 29.381 75.791 29.898 75.846 29.941 75.846 29.984 75.857 30.017 75.857 30.491 75.857 30.922 75.545 31.052 75.081L37.422 53.287 38.079 54.904C38.241 55.313 38.629 55.583 39.071 55.583 39.502 55.595 39.901 55.336 40.073 54.937L41.572 51.445 43.361 47.284 45.819 51.445 46.142 51.994C46.335 52.328 46.691 52.521 47.068 52.521" fill="#000000" data-fill-palette-color="accent"></path><path d="M89.028 50V50.205C88.985 50.259 88.942 50.313 88.909 50.367H47.693L44.136 44.353A1.09 1.09 0 0 0 43.144 43.825C42.734 43.857 42.379 44.105 42.217 44.482L39.221 51.445 39.113 51.704 39.005 51.445 38.261 49.602A1.077 1.077 0 0 0 36.225 49.699L35.718 51.445 30.717 68.54 29.682 51.445 28.087 25.157A1.07 1.07 0 0 0 27.074 24.155 1.067 1.067 0 0 0 25.953 25.028L21.157 50.939 18.344 43.965A1.05 1.05 0 0 0 17.386 43.297C16.954 43.287 16.556 43.524 16.372 43.912L13.311 50.412H12.223L11.069 50.401C11.037 50.358 11.015 50.315 10.972 50.272V50C10.972 28.443 28.444 10.972 50 10.972S89.028 28.443 89.028 50" fill="#000000" data-fill-palette-color="accent"></path></svg></g></svg></g><g></g></svg></g><defs></defs></svg><rect width="293.5205713852365" height="247.2" fill="none" stroke="none" visibility="hidden"></rect></g></svg></g></svg>