<?xml version="1.0" standalone="no"?>
<!DOCTYPE svg PUBLIC "-//W3C//DTD SVG 20010904//EN"
 "http://www.w3.org/TR/2001/REC-SVG-20010904/DTD/svg10.dtd">
<svg version="1.0" xmlns="http://www.w3.org/2000/svg"
 width="657.000000pt" height="665.000000pt" viewBox="0 0 657.000000 665.000000"
 preserveAspectRatio="xMidYMid meet">

<g transform="translate(0.000000,665.000000) scale(0.100000,-0.100000)"
fill="#000000" stroke="none">
<path d="M2905 6515 c-2 -5 -8 -39 -15 -75 -6 -36 -38 -171 -70 -300 -33 -129
-65 -267 -71 -307 l-12 -72 -56 -12 c-133 -27 -500 -184 -659 -281 l-62 -38
-53 32 c-28 17 -78 51 -109 75 -31 24 -155 111 -275 193 l-218 149 -45 -47
c-25 -26 -154 -154 -287 -285 -134 -131 -243 -240 -243 -242 0 -3 16 -25 35
-51 19 -25 88 -134 152 -242 64 -108 130 -213 145 -233 15 -20 28 -40 28 -43
0 -3 15 -27 34 -53 l34 -47 -39 -61 c-21 -34 -39 -66 -39 -71 0 -5 -11 -26
-25 -45 -41 -61 -146 -317 -185 -449 -34 -118 -38 -125 -66 -132 -16 -4 -87
-21 -159 -38 -71 -17 -192 -49 -268 -71 -77 -23 -171 -47 -210 -53 l-72 -12
-1 -112 -1 -112 291 0 c160 -1 376 -5 480 -10 212 -10 219 -13 237 -84 17 -68
27 -75 110 -79 41 -2 -193 -4 -518 -3 l-593 1 -2 -107 c-1 -60 -2 -127 -3
-150 l0 -42 70 -13 c39 -7 131 -30 205 -53 176 -52 376 -106 421 -114 36 -6
36 -7 59 -94 34 -127 90 -290 148 -426 50 -116 122 -249 142 -261 6 -4 0 -20
-14 -38 -13 -18 -79 -124 -147 -237 -102 -171 -192 -313 -244 -388 -8 -11 11
-33 85 -100 52 -47 182 -172 288 -279 l192 -192 50 37 c27 20 125 84 217 142
155 96 256 161 359 230 l40 27 29 -29 c32 -32 272 -156 410 -213 50 -20 144
-51 210 -69 l119 -33 27 -114 c72 -306 110 -473 126 -561 l18 -98 371 0 371 0
18 88 c9 48 39 170 66 272 27 102 61 237 75 301 l27 116 88 21 c192 47 506
180 646 275 l51 34 49 -30 c26 -17 121 -79 210 -137 89 -58 196 -127 238 -153
42 -27 95 -63 118 -81 l42 -31 149 155 c160 166 328 326 388 370 l37 27 -25
34 c-24 33 -102 159 -239 389 -37 63 -88 146 -113 184 l-45 69 66 126 c104
200 212 480 242 627 6 29 11 32 63 43 31 6 161 40 287 76 127 36 266 71 310
77 l80 12 2 130 c2 72 6 143 9 159 l6 27 -300 0 -299 0 -18 -48 c-52 -139
-140 -239 -268 -302 -110 -55 -208 -70 -315 -48 l-72 14 -11 -40 c-114 -430
-441 -883 -813 -1128 -201 -132 -422 -233 -622 -284 -196 -49 -278 -57 -524
-51 -188 5 -233 9 -361 36 -420 88 -808 315 -1101 645 -201 227 -365 540 -422
806 -17 79 -46 311 -46 369 l0 34 83 -7 c45 -4 86 -12 92 -17 5 -5 109 -9 231
-9 l222 0 15 -42 c8 -24 27 -79 43 -123 32 -94 124 -295 134 -295 9 0 58 126
114 285 75 217 161 439 182 469 16 23 9 41 69 -179 26 -93 55 -201 66 -238 11
-37 44 -159 74 -270 54 -205 70 -257 80 -257 13 0 49 94 76 198 16 64 50 176
75 247 25 72 56 166 69 210 13 44 57 184 99 310 42 127 76 236 76 243 0 6 4
12 9 12 5 0 11 -21 14 -47 12 -108 112 -926 167 -1363 16 -129 34 -280 40
-335 13 -117 46 -274 64 -309 23 -46 47 -8 70 114 9 47 34 144 56 215 21 72
60 200 85 285 25 85 59 196 75 245 16 50 38 128 50 175 12 46 32 109 45 140
12 30 33 91 45 135 12 44 38 127 58 185 33 96 37 102 44 75 5 -17 26 -95 48
-175 22 -80 69 -257 105 -395 70 -270 116 -420 131 -419 16 1 53 77 69 145 21
84 109 356 169 519 25 69 46 142 46 162 0 20 4 39 9 42 5 3 7 15 4 26 -11 43
10 50 158 50 81 0 140 -4 144 -10 3 -5 11 -10 17 -10 5 0 0 8 -12 18 -22 18
-23 21 -12 92 8 57 8 76 -1 82 -7 4 -82 8 -167 8 -85 0 -172 5 -194 11 -47 13
-44 17 -86 -115 -17 -55 -52 -161 -78 -235 -41 -121 -47 -132 -54 -105 -9 32
-62 235 -138 529 -74 286 -137 516 -144 522 -13 14 -9 25 -106 -302 -22 -77
-92 -295 -155 -485 -62 -190 -134 -421 -160 -515 -26 -93 -50 -174 -54 -178
-5 -5 -11 27 -15 70 -11 131 -35 348 -101 923 -100 867 -136 1090 -175 1090
-17 0 -88 -207 -171 -495 -33 -115 -69 -235 -79 -265 -25 -73 -99 -323 -147
-492 -21 -76 -41 -138 -44 -138 -4 0 -10 12 -13 28 -4 15 -24 86 -46 157 -21
72 -57 198 -80 280 -33 119 -94 311 -146 455 -3 8 -38 -85 -78 -205 -40 -121
-103 -287 -138 -370 -36 -82 -75 -181 -88 -220 -17 -51 -26 -66 -32 -55 -5 8
-22 39 -39 67 l-29 53 -73 -5 c-407 -27 -647 -29 -663 -4 -11 18 38 267 78
394 59 190 176 423 286 571 103 138 169 208 305 322 196 164 431 297 652 371
245 82 424 106 713 98 196 -5 302 -21 487 -74 557 -158 1064 -606 1281 -1130
24 -59 48 -111 53 -116 5 -5 30 -2 62 7 101 30 219 15 344 -44 95 -44 199
-128 243 -196 34 -50 72 -158 72 -201 l0 -25 288 4 287 3 0 110 0 109 -30 7
c-166 37 -557 145 -620 171 -77 32 -81 35 -94 78 -17 53 -75 201 -124 318 -47
109 -142 287 -181 336 -20 27 -26 41 -18 44 19 6 113 149 258 392 18 30 66 99
107 153 l73 98 -290 290 c-160 159 -292 289 -293 289 -2 0 -53 -35 -115 -77
-62 -43 -160 -108 -218 -147 -58 -38 -153 -105 -213 -148 l-108 -79 -34 30
c-77 67 -448 231 -648 286 -49 13 -92 26 -94 29 -2 2 -13 46 -24 97 -15 74
-135 570 -155 639 -3 13 -54 15 -375 15 -239 0 -373 -4 -374 -10z"/>
<path d="M5252 3758 c-55 -18 -63 -24 -58 -42 3 -12 1 -28 -4 -36 -7 -11 -10
-7 -10 18 l0 33 -25 -18 c-13 -10 -22 -24 -20 -30 2 -7 -1 -12 -8 -10 -7 1
-11 -8 -9 -23 2 -24 2 -24 -12 -5 -14 19 -15 19 -25 -8 -6 -15 -16 -99 -22
-186 -10 -152 -10 -161 10 -199 41 -81 133 -145 247 -171 40 -10 66 -10 115 0
61 11 149 51 149 68 0 4 11 14 25 21 14 7 25 19 25 27 0 7 5 13 11 13 5 0 8 4
5 9 -4 5 -2 11 4 13 5 1 26 48 46 103 41 115 41 161 1 242 -87 171 -262 242
-445 181z m193 -93 c0 -84 1 -89 25 -99 72 -31 97 -115 66 -219 -10 -34 -11
-48 -2 -57 8 -9 6 -11 -10 -6 -23 7 -74 -11 -74 -26 0 -5 -3 -7 -7 -5 -5 2
-21 -2 -38 -10 -29 -13 -29 -13 23 -9 52 4 52 4 52 -25 0 -16 -5 -29 -11 -29
-6 0 -17 -7 -25 -15 -11 -11 -20 -12 -34 -5 -10 6 -31 10 -47 10 -49 0 -74 48
-33 62 10 3 5 10 -19 22 -18 10 -55 40 -82 68 -48 49 -49 52 -49 111 0 58 2
62 42 99 24 22 62 44 87 52 44 12 46 15 49 52 1 21 5 49 7 61 7 29 42 62 63
58 14 -2 17 -16 17 -90z"/>
</g>
</svg>
